<svg width="71" height="51" viewBox="0 0 71 51" fill="none" xmlns="http://www.w3.org/2000/svg">
<path d="M31.75 27.5L31.7525 22.4975C31.7525 21.3337 31.7525 20.7525 31.9437 20.2938C32.0694 19.9902 32.2536 19.7144 32.4859 19.4822C32.7182 19.2499 32.994 19.0656 33.2975 18.94C33.7562 18.75 34.3375 18.75 35.5 18.75C36.6625 18.75 37.245 18.75 37.705 18.94C38.0085 19.0656 38.2843 19.2499 38.5166 19.4822C38.7489 19.7144 38.9331 19.9902 39.0588 20.2938C39.25 20.7538 39.25 21.335 39.25 22.5V27.5" stroke="#BBBDBF" stroke-width="1.5" stroke-linecap="round" stroke-linejoin="round"/>
<path d="M29.36 5.9525L28.11 6.92875C26.215 8.40875 25.2663 9.14875 24.7588 10.1912C24.25 11.235 24.25 12.44 24.25 14.85V17.465C24.25 22.195 24.25 24.56 25.715 26.03C27.18 27.5 29.5363 27.5 34.25 27.5H36.75C41.4637 27.5 43.8212 27.5 45.285 26.03C46.7487 24.56 46.75 22.195 46.75 17.4637V14.8512C46.75 12.44 46.75 11.235 46.2413 10.1912C45.7325 9.14875 44.785 8.40875 42.89 6.92875L41.64 5.95375C38.69 3.65 37.215 2.5 35.5 2.5C33.785 2.5 32.31 3.65 29.36 5.9525Z" stroke="#BBBDBF" stroke-width="1.5" stroke-linecap="round" stroke-linejoin="round"/>
<path d="M30.9925 44.312H39.9525V48.106H30.9925V44.312ZM38.1325 45.684H32.8125V46.72H38.1325V45.684ZM30.1805 36.178H40.7505V37.592H30.1805V36.178ZM35.4865 37.9C36.8865 37.9 37.9599 38.0587 38.7065 38.376C39.4532 38.684 39.8265 39.1413 39.8265 39.748C39.8265 40.364 39.4532 40.8307 38.7065 41.148C37.9599 41.456 36.8865 41.61 35.4865 41.61C34.1052 41.61 33.0365 41.456 32.2805 41.148C31.5245 40.8307 31.1465 40.364 31.1465 39.748C31.1465 39.1413 31.5245 38.684 32.2805 38.376C33.0365 38.0587 34.1052 37.9 35.4865 37.9ZM35.4865 39.16C34.6932 39.16 34.1052 39.2067 33.7225 39.3C33.3399 39.3933 33.1485 39.5427 33.1485 39.748C33.1485 39.9627 33.3399 40.1167 33.7225 40.21C34.1052 40.3033 34.6932 40.35 35.4865 40.35C36.2985 40.35 36.8912 40.3033 37.2645 40.21C37.6472 40.1167 37.8385 39.9627 37.8385 39.748C37.8385 39.5427 37.6472 39.3933 37.2645 39.3C36.8912 39.2067 36.2985 39.16 35.4865 39.16ZM34.5625 35.184H36.4105V37.186H34.5625V35.184ZM29.6205 42.212H41.3525V43.654H29.6205V42.212ZM34.5625 41.162H36.4105V42.968H34.5625V41.162Z" fill="#BBBDBF"/>
</svg>
