<svg width="71" height="51" viewBox="0 0 71 51" fill="none" xmlns="http://www.w3.org/2000/svg">
<path d="M39.25 5H46.75M39.25 18.75H46.75M39.25 11.25H46.75M39.25 25H46.75" stroke="#3744FB" stroke-width="1.5" stroke-linecap="round" stroke-linejoin="round"/>
<path d="M28.625 12.5C31.0412 12.5 33 10.5412 33 8.125C33 5.70875 31.0412 3.75 28.625 3.75C26.2088 3.75 24.25 5.70875 24.25 8.125C24.25 10.5412 26.2088 12.5 28.625 12.5Z" stroke="#3744FB" stroke-width="1.5" stroke-linecap="round" stroke-linejoin="round"/>
<path d="M28.625 26.25C31.0412 26.25 33 24.2912 33 21.875C33 19.4588 31.0412 17.5 28.625 17.5C26.2088 17.5 24.25 19.4588 24.25 21.875C24.25 24.2912 26.2088 26.25 28.625 26.25Z" stroke="#3744FB" stroke-width="1.5" stroke-linecap="round" stroke-linejoin="round"/>
<path d="M14.7962 36.514H16.6022C16.6022 37.522 16.5229 38.4833 16.3642 39.398C16.2149 40.3127 15.9349 41.1807 15.5242 42.002C15.1135 42.8233 14.5302 43.5933 13.7742 44.312C13.0182 45.0307 12.0335 45.698 10.8202 46.314L9.82619 44.886C10.8342 44.382 11.6602 43.8453 12.3042 43.276C12.9575 42.6973 13.4615 42.0813 13.8162 41.428C14.1802 40.7653 14.4322 40.0467 14.5722 39.272C14.7215 38.4973 14.7962 37.6573 14.7962 36.752V36.514ZM10.6382 36.514H15.8882V37.998H10.6382V36.514ZM14.8382 39.692V41.12L10.1902 41.568L9.95219 39.986L14.8382 39.692ZM18.1702 35.254H20.0462V48.218H18.1702V35.254ZM19.5702 40.224H21.8522V41.75H19.5702V40.224ZM28.3331 39.986H30.6291V41.484H28.3331V39.986ZM23.4191 43.892H24.3151C24.9218 43.892 25.4678 43.8873 25.9531 43.878C26.4384 43.8687 26.9004 43.8453 27.3391 43.808C27.7871 43.7613 28.2491 43.7007 28.7251 43.626L28.8651 45.124C28.3891 45.208 27.9178 45.2687 27.4511 45.306C26.9844 45.3433 26.4991 45.3667 25.9951 45.376C25.4911 45.3853 24.9311 45.39 24.3151 45.39H23.4191V43.892ZM23.4191 36.696H28.2351V38.18H25.1971V44.438H23.4191V36.696ZM24.6791 40.182H27.7451V41.624H24.6791V40.182ZM32.4211 35.268H34.1851V48.232H32.4211V35.268ZM29.7331 35.506H31.4691V47.672H29.7331V35.506ZM37.418 36.374H45.622V37.858H37.418V36.374ZM36.214 45.166H47.946V46.678H36.214V45.166ZM40.358 40.714H42.234V45.922H40.358V40.714ZM44.95 36.374H46.826V37.606C46.826 38.1473 46.8167 38.7213 46.798 39.328C46.7887 39.9347 46.7467 40.6067 46.672 41.344C46.6067 42.0813 46.4853 42.9073 46.308 43.822L44.446 43.626C44.7073 42.3287 44.8567 41.1993 44.894 40.238C44.9313 39.2673 44.95 38.39 44.95 37.606V36.374ZM58.2909 35.254H60.1669V48.26H58.2909V35.254ZM50.0729 43.724H51.2209C51.9862 43.724 52.7096 43.7147 53.3909 43.696C54.0722 43.668 54.7396 43.626 55.3929 43.57C56.0462 43.5047 56.7136 43.4113 57.3949 43.29L57.5909 44.788C56.5456 44.9747 55.5142 45.1007 54.4969 45.166C53.4889 45.222 52.3969 45.25 51.2209 45.25H50.0729V43.724ZM50.0449 36.36H56.1629V41.386H51.9629V44.298H50.0729V39.916H54.2729V37.858H50.0449V36.36Z" fill="#3744FB"/>
</svg>
