<svg width="71" height="51" viewBox="0 0 71 51" fill="none" xmlns="http://www.w3.org/2000/svg">
<path d="M48 15C48 21.9037 42.4037 27.5 35.5 27.5C28.5962 27.5 23 21.9037 23 15C23 8.09625 28.5962 2.5 35.5 2.5C42.4037 2.5 48 8.09625 48 15Z" stroke="#3744FB" stroke-width="1.5" stroke-linecap="round" stroke-linejoin="round"/>
<path d="M27.375 23.75L28.075 22.525C28.6216 21.568 29.4116 20.7726 30.3647 20.2194C31.3179 19.6662 32.4004 19.3749 33.5025 19.375H37.4975C38.5996 19.3749 39.6821 19.6662 40.6353 20.2194C41.5884 20.7726 42.3784 21.568 42.925 22.525L43.625 23.75M38.9375 11.875C38.9375 12.7867 38.5753 13.661 37.9307 14.3057C37.286 14.9503 36.4117 15.3125 35.5 15.3125C34.5883 15.3125 33.714 14.9503 33.0693 14.3057C32.4247 13.661 32.0625 12.7867 32.0625 11.875C32.0625 10.9633 32.4247 10.089 33.0693 9.44432C33.714 8.79966 34.5883 8.4375 35.5 8.4375C36.4117 8.4375 37.286 8.79966 37.9307 9.44432C38.5753 10.089 38.9375 10.9633 38.9375 11.875Z" stroke="#3744FB" stroke-width="1.5" stroke-linecap="round" stroke-linejoin="round"/>
<path d="M3.70873 36.486H9.91073V45.082H3.70873V36.486ZM8.07673 37.956H5.54273V43.626H8.07673V37.956ZM11.5907 35.282H13.4667V48.246H11.5907V35.282ZM13.0607 40.168H15.3427V41.694H13.0607V40.168ZM25.3656 35.254H27.2276V48.26H25.3656V35.254ZM20.2416 36.164C20.9043 36.164 21.4923 36.3553 22.0056 36.738C22.519 37.1113 22.9203 37.648 23.2096 38.348C23.5083 39.0387 23.6576 39.8553 23.6576 40.798C23.6576 41.75 23.5083 42.576 23.2096 43.276C22.9203 43.9667 22.519 44.5033 22.0056 44.886C21.4923 45.2593 20.9043 45.446 20.2416 45.446C19.5883 45.446 19.005 45.2593 18.4916 44.886C17.9783 44.5033 17.5723 43.9667 17.2736 43.276C16.9843 42.576 16.8396 41.75 16.8396 40.798C16.8396 39.8553 16.9843 39.0387 17.2736 38.348C17.5723 37.648 17.9783 37.1113 18.4916 36.738C19.005 36.3553 19.5883 36.164 20.2416 36.164ZM20.2416 37.858C19.9243 37.858 19.6443 37.97 19.4016 38.194C19.159 38.418 18.9676 38.7493 18.8276 39.188C18.697 39.6173 18.6316 40.154 18.6316 40.798C18.6316 41.4327 18.697 41.974 18.8276 42.422C18.9676 42.8607 19.159 43.192 19.4016 43.416C19.6443 43.64 19.9243 43.752 20.2416 43.752C20.5683 43.752 20.853 43.64 21.0956 43.416C21.3383 43.192 21.525 42.8607 21.6556 42.422C21.7956 41.974 21.8656 41.4327 21.8656 40.798C21.8656 40.154 21.7956 39.6173 21.6556 39.188C21.525 38.7493 21.3383 38.418 21.0956 38.194C20.853 37.97 20.5683 37.858 20.2416 37.858ZM39.1125 35.282H40.8765V48.246H39.1125V35.282ZM35.3045 40H37.0405V41.624H35.3045V40ZM36.5365 35.52H38.2725V47.63H36.5365V35.52ZM29.7185 36.738H35.6265V38.222H29.7185V36.738ZM29.7045 45.306L29.5085 43.78C29.9099 43.78 30.3719 43.78 30.8945 43.78C31.4172 43.7707 31.9632 43.7567 32.5325 43.738C33.1019 43.71 33.6665 43.6773 34.2265 43.64C34.7959 43.5933 35.3279 43.5373 35.8225 43.472L35.9345 44.816C35.2719 44.9653 34.5579 45.0773 33.7925 45.152C33.0272 45.2173 32.2852 45.2593 31.5665 45.278C30.8572 45.2967 30.2365 45.306 29.7045 45.306ZM30.5165 37.676H32.1965V44.186H30.5165V37.676ZM33.1345 37.676H34.8005V44.186H33.1345V37.676ZM51.6835 35.254H53.5455V48.26H51.6835V35.254ZM46.5595 36.164C47.2221 36.164 47.8101 36.3553 48.3235 36.738C48.8368 37.1113 49.2381 37.648 49.5275 38.348C49.8261 39.0387 49.9755 39.8553 49.9755 40.798C49.9755 41.75 49.8261 42.576 49.5275 43.276C49.2381 43.9667 48.8368 44.5033 48.3235 44.886C47.8101 45.2593 47.2221 45.446 46.5595 45.446C45.9061 45.446 45.3228 45.2593 44.8095 44.886C44.2961 44.5033 43.8901 43.9667 43.5915 43.276C43.3021 42.576 43.1575 41.75 43.1575 40.798C43.1575 39.8553 43.3021 39.0387 43.5915 38.348C43.8901 37.648 44.2961 37.1113 44.8095 36.738C45.3228 36.3553 45.9061 36.164 46.5595 36.164ZM46.5595 37.858C46.2421 37.858 45.9621 37.97 45.7195 38.194C45.4768 38.418 45.2855 38.7493 45.1455 39.188C45.0148 39.6173 44.9495 40.154 44.9495 40.798C44.9495 41.4327 45.0148 41.974 45.1455 42.422C45.2855 42.8607 45.4768 43.192 45.7195 43.416C45.9621 43.64 46.2421 43.752 46.5595 43.752C46.8861 43.752 47.1708 43.64 47.4135 43.416C47.6561 43.192 47.8428 42.8607 47.9735 42.422C48.1135 41.974 48.1835 41.4327 48.1835 40.798C48.1835 40.154 48.1135 39.6173 47.9735 39.188C47.8428 38.7493 47.6561 38.418 47.4135 38.194C47.1708 37.97 46.8861 37.858 46.5595 37.858ZM59.0744 37.326H60.5584V38.782C60.5584 39.5287 60.479 40.2613 60.3204 40.98C60.171 41.6987 59.9424 42.3753 59.6344 43.01C59.3357 43.6353 58.9577 44.1907 58.5004 44.676C58.043 45.152 57.511 45.53 56.9044 45.81L55.8404 44.34C56.3817 44.088 56.853 43.7613 57.2544 43.36C57.665 42.9587 58.001 42.5107 58.2624 42.016C58.533 41.512 58.7337 40.9847 58.8644 40.434C59.0044 39.874 59.0744 39.3233 59.0744 38.782V37.326ZM59.4804 37.326H60.9504V38.782C60.9504 39.2953 61.0157 39.818 61.1464 40.35C61.2864 40.8727 61.487 41.372 61.7484 41.848C62.0097 42.3147 62.341 42.7347 62.7424 43.108C63.1437 43.4813 63.6197 43.78 64.1704 44.004L63.1484 45.488C62.5324 45.2173 61.9957 44.8533 61.5384 44.396C61.081 43.9387 60.6984 43.4113 60.3904 42.814C60.0824 42.2167 59.8537 41.5773 59.7044 40.896C59.555 40.2053 59.4804 39.5007 59.4804 38.782V37.326ZM56.3584 36.514H63.6384V38.054H56.3584V36.514ZM64.8424 35.282H66.7044V48.246H64.8424V35.282Z" fill="#3744FB"/>
</svg>
