<svg width="45" height="22" viewBox="0 0 45 22" fill="none" xmlns="http://www.w3.org/2000/svg">
<rect width="45" height="22" rx="8" fill="#F1F1F2"/>
<path d="M8.01156 7.51H9.30156C9.30156 8.23 9.2449 8.91667 9.13156 9.57C9.0249 10.2233 8.8249 10.8433 8.53156 11.43C8.23823 12.0167 7.82156 12.5667 7.28156 13.08C6.74156 13.5933 6.03823 14.07 5.17156 14.51L4.46156 13.49C5.18156 13.13 5.77156 12.7467 6.23156 12.34C6.69823 11.9267 7.05823 11.4867 7.31156 11.02C7.57156 10.5467 7.75156 10.0333 7.85156 9.48C7.95823 8.92667 8.01156 8.32667 8.01156 7.68V7.51ZM5.04156 7.51H8.79156V8.57H5.04156V7.51ZM8.04156 9.78V10.8L4.72156 11.12L4.55156 9.99L8.04156 9.78ZM10.4216 6.61H11.7616V15.87H10.4216V6.61ZM11.4216 10.16H13.0516V11.25H11.4216V10.16ZM17.4808 9.99H19.1208V11.06H17.4808V9.99ZM13.9708 12.78H14.6108C15.0441 12.78 15.4341 12.7767 15.7808 12.77C16.1274 12.7633 16.4574 12.7467 16.7708 12.72C17.0908 12.6867 17.4208 12.6433 17.7608 12.59L17.8608 13.66C17.5208 13.72 17.1841 13.7633 16.8508 13.79C16.5174 13.8167 16.1708 13.8333 15.8108 13.84C15.4508 13.8467 15.0508 13.85 14.6108 13.85H13.9708V12.78ZM13.9708 7.64H17.4108V8.7H15.2408V13.17H13.9708V7.64ZM14.8708 10.13H17.0608V11.16H14.8708V10.13ZM20.4008 6.62H21.6608V15.88H20.4008V6.62ZM18.4808 6.79H19.7208V15.48H18.4808V6.79ZM23.77 7.41H29.63V8.47H23.77V7.41ZM22.91 13.69H31.29V14.77H22.91V13.69ZM25.87 10.51H27.21V14.23H25.87V10.51ZM29.15 7.41H30.49V8.29C30.49 8.67667 30.4833 9.08667 30.47 9.52C30.4633 9.95333 30.4333 10.4333 30.38 10.96C30.3333 11.4867 30.2467 12.0767 30.12 12.73L28.79 12.59C28.9767 11.6633 29.0833 10.8567 29.11 10.17C29.1367 9.47667 29.15 8.85 29.15 8.29V7.41ZM38.4792 6.61H39.8192V15.9H38.4792V6.61ZM32.6092 12.66H33.4292C33.9759 12.66 34.4926 12.6533 34.9792 12.64C35.4659 12.62 35.9426 12.59 36.4092 12.55C36.8759 12.5033 37.3526 12.4367 37.8392 12.35L37.9792 13.42C37.2326 13.5533 36.4959 13.6433 35.7692 13.69C35.0492 13.73 34.2692 13.75 33.4292 13.75H32.6092V12.66ZM32.5892 7.4H36.9592V10.99H33.9592V13.07H32.6092V9.94H35.6092V8.47H32.5892V7.4Z" fill="#6D6E70"/>
</svg>
