<svg width="24" height="24" viewBox="0 0 24 24" fill="none" xmlns="http://www.w3.org/2000/svg">
<path d="M4 17.98V9.709C4 6.075 4 4.259 5.172 3.129C6.344 1.999 8.229 2 12 2C15.771 2 17.657 2 18.828 3.129C20 4.257 20 6.074 20 9.708V17.981C20 20.287 20 21.44 19.227 21.852C17.73 22.652 14.923 19.985 13.59 19.182C12.817 18.717 12.43 18.484 12 18.484C11.57 18.484 11.183 18.717 10.41 19.182C9.077 19.985 6.27 22.652 4.773 21.852C4 21.44 4 20.287 4 17.981" fill="#3744FB"/>
<path d="M4 17.98V9.709C4 6.075 4 4.259 5.172 3.129C6.344 1.999 8.229 2 12 2C15.771 2 17.657 2 18.828 3.129C20 4.257 20 6.074 20 9.708V17.981C20 20.287 20 21.44 19.227 21.852C17.73 22.652 14.923 19.985 13.59 19.182C12.817 18.717 12.43 18.484 12 18.484C11.57 18.484 11.183 18.717 10.41 19.182C9.077 19.985 6.27 22.652 4.773 21.852C4 21.44 4 20.287 4 17.981" stroke="#3744FB" stroke-width="1.5" stroke-linecap="round" stroke-linejoin="round"/>
</svg>
