<svg width="24" height="24" viewBox="0 0 24 24" fill="none" xmlns="http://www.w3.org/2000/svg">
<path d="M8.729 10.75L15.229 7.75M8.729 13.25L15.229 16.25M21 6.5C21 7.29565 20.6839 8.05871 20.1213 8.62132C19.5587 9.18393 18.7956 9.5 18 9.5C17.2044 9.5 16.4413 9.18393 15.8787 8.62132C15.3161 8.05871 15 7.29565 15 6.5C15 5.70435 15.3161 4.94129 15.8787 4.37868C16.4413 3.81607 17.2044 3.5 18 3.5C18.7956 3.5 19.5587 3.81607 20.1213 4.37868C20.6839 4.94129 21 5.70435 21 6.5ZM9 12C9 12.7956 8.68393 13.5587 8.12132 14.1213C7.55871 14.6839 6.79565 15 6 15C5.20435 15 4.44129 14.6839 3.87868 14.1213C3.31607 13.5587 3 12.7956 3 12C3 11.2044 3.31607 10.4413 3.87868 9.87868C4.44129 9.31607 5.20435 9 6 9C6.79565 9 7.55871 9.31607 8.12132 9.87868C8.68393 10.4413 9 11.2044 9 12ZM21 17.5C21 18.2956 20.6839 19.0587 20.1213 19.6213C19.5587 20.1839 18.7956 20.5 18 20.5C17.2044 20.5 16.4413 20.1839 15.8787 19.6213C15.3161 19.0587 15 18.2956 15 17.5C15 16.7044 15.3161 15.9413 15.8787 15.3787C16.4413 14.8161 17.2044 14.5 18 14.5C18.7956 14.5 19.5587 14.8161 20.1213 15.3787C20.6839 15.9413 21 16.7044 21 17.5Z" stroke="#231F20" stroke-width="1.5" stroke-linecap="round" stroke-linejoin="round"/>
</svg>
