<svg width="80" height="47" viewBox="0 0 80 47" fill="none" xmlns="http://www.w3.org/2000/svg">
<g clip-path="url(#clip0_153_1572)">
<path d="M42.91 46.04H31.54C18.85 46.04 8.52002 35.71 8.52002 23.02C8.52002 10.33 18.84 0 31.53 0V9.5C24.08 9.5 18.01 15.56 18.01 23.02C18.01 30.48 24.07 36.54 31.53 36.54H42.9V46.04H42.91Z" fill="#3744FB"/>
<path d="M10.14 0.0500488H0V45.9901H10.14V0.0500488Z" fill="#3744FB"/>
<path d="M48.24 46.04V36.54C55.69 36.54 61.76 30.48 61.76 23.02C61.76 15.56 55.7 9.5 48.24 9.5H36.87V0H48.24C60.93 0 71.26 10.33 71.26 23.02C71.26 35.71 60.93 46.04 48.24 46.04Z" fill="#3744FB"/>
<path d="M79.78 0.0500488H69.64V45.9901H79.78V0.0500488Z" fill="#3744FB"/>
</g>
<defs>
<clipPath id="clip0_153_1572">
<rect width="79.77" height="46.04" fill="white"/>
</clipPath>
</defs>
</svg>
