<svg width="30" height="30" viewBox="0 0 30 30" fill="none" xmlns="http://www.w3.org/2000/svg">
<path d="M17.5 17.5L20.625 20.625M20.5413 23.1562C20.3606 22.9866 20.2158 22.7824 20.1156 22.5557C20.0154 22.329 19.9617 22.0845 19.9578 21.8367C19.9539 21.5889 19.9999 21.3428 20.0929 21.1131C20.1859 20.8834 20.3242 20.6747 20.4994 20.4994C20.6747 20.3242 20.8834 20.1859 21.1131 20.0929C21.3428 19.9999 21.5889 19.9539 21.8367 19.9578C22.0845 19.9617 22.329 20.0154 22.5557 20.1156C22.7824 20.2158 22.9866 20.3606 23.1562 20.5413L26.9587 24.3438C27.1394 24.5134 27.2842 24.7176 27.3844 24.9443C27.4846 25.171 27.5383 25.4155 27.5422 25.6633C27.5461 25.9111 27.5001 26.1572 27.4071 26.3869C27.3141 26.6166 27.1758 26.8253 27.0006 27.0006C26.8253 27.1758 26.6166 27.3141 26.3869 27.4071C26.1572 27.5001 25.9111 27.5461 25.6633 27.5422C25.4155 27.5383 25.171 27.4846 24.9443 27.3844C24.7176 27.2842 24.5134 27.1394 24.3438 26.9587L20.5413 23.1562ZM20 11.25C20 8.92936 19.0781 6.70376 17.4372 5.06282C15.7962 3.42187 13.5706 2.5 11.25 2.5C8.92936 2.5 6.70376 3.42187 5.06282 5.06282C3.42187 6.70376 2.5 8.92936 2.5 11.25C2.5 13.5706 3.42187 15.7962 5.06282 17.4372C6.70376 19.0781 8.92936 20 11.25 20C13.5706 20 15.7962 19.0781 17.4372 17.4372C19.0781 15.7962 20 13.5706 20 11.25Z" stroke="#231F20" stroke-width="1.5" stroke-linecap="round" stroke-linejoin="round"/>
</svg>
