<svg width="53" height="55" viewBox="0 0 53 55" fill="none" xmlns="http://www.w3.org/2000/svg">
<path d="M26.5 6.25C24.5716 6.25 22.6866 6.82183 21.0832 7.89317C19.4798 8.96451 18.2301 10.4873 17.4922 12.2688C16.7542 14.0504 16.5611 16.0108 16.9373 17.9021C17.3136 19.7934 18.2422 21.5307 19.6057 22.8943C20.9693 24.2579 22.7066 25.1865 24.5979 25.5627C26.4892 25.9389 28.4496 25.7458 30.2312 25.0078C32.0127 24.2699 33.5355 23.0202 34.6068 21.4168C35.6782 19.8134 36.25 17.9284 36.25 16C36.2468 13.4151 35.2185 10.9371 33.3907 9.10927C31.563 7.28149 29.0849 6.25323 26.5 6.25ZM22.375 17.125C22.1525 17.125 21.935 17.059 21.75 16.9354C21.565 16.8118 21.4208 16.6361 21.3356 16.4305C21.2505 16.225 21.2282 15.9988 21.2716 15.7805C21.315 15.5623 21.4222 15.3618 21.5795 15.2045C21.7368 15.0472 21.9373 14.94 22.1555 14.8966C22.3738 14.8532 22.6 14.8755 22.8055 14.9606C23.0111 15.0458 23.1868 15.19 23.3104 15.375C23.434 15.56 23.5 15.7775 23.5 16C23.5 16.2984 23.3815 16.5845 23.1705 16.7955C22.9595 17.0065 22.6734 17.125 22.375 17.125ZM26.5 17.125C26.2775 17.125 26.06 17.059 25.875 16.9354C25.69 16.8118 25.5458 16.6361 25.4606 16.4305C25.3755 16.225 25.3532 15.9988 25.3966 15.7805C25.44 15.5623 25.5472 15.3618 25.7045 15.2045C25.8618 15.0472 26.0623 14.94 26.2805 14.8966C26.4988 14.8532 26.725 14.8755 26.9305 14.9606C27.1361 15.0458 27.3118 15.19 27.4354 15.375C27.559 15.56 27.625 15.7775 27.625 16C27.625 16.2984 27.5065 16.5845 27.2955 16.7955C27.0845 17.0065 26.7984 17.125 26.5 17.125ZM30.625 17.125C30.4025 17.125 30.185 17.059 30 16.9354C29.815 16.8118 29.6708 16.6361 29.5856 16.4305C29.5005 16.225 29.4782 15.9988 29.5216 15.7805C29.565 15.5623 29.6722 15.3618 29.8295 15.2045C29.9868 15.0472 30.1873 14.94 30.4055 14.8966C30.6238 14.8532 30.85 14.8755 31.0555 14.9606C31.2611 15.0458 31.4368 15.19 31.5604 15.375C31.684 15.56 31.75 15.7775 31.75 16C31.75 16.2984 31.6315 16.5845 31.4205 16.7955C31.2095 17.0065 30.9234 17.125 30.625 17.125Z" fill="#A6A8AB"/>
<path d="M23.5471 35.422H24.7091V48.092H23.5471V35.422ZM19.8371 36.794H20.9851C20.9851 37.7087 20.8731 38.5907 20.6491 39.44C20.4344 40.2893 20.0938 41.0967 19.6271 41.862C19.1604 42.618 18.5538 43.3227 17.8071 43.976C17.0604 44.6293 16.1551 45.2127 15.0911 45.726L14.4751 44.788C15.6978 44.2 16.7058 43.514 17.4991 42.73C18.2924 41.946 18.8804 41.0733 19.2631 40.112C19.6458 39.1413 19.8371 38.096 19.8371 36.976V36.794ZM15.0631 36.794H20.3271V37.732H15.0631V36.794ZM27.746 44.074H28.74C29.5147 44.074 30.224 44.0647 30.868 44.046C31.512 44.0273 32.1327 43.99 32.73 43.934C33.3367 43.878 33.9573 43.794 34.592 43.682L34.704 44.634C34.06 44.746 33.43 44.8347 32.814 44.9C32.198 44.956 31.5587 44.9933 30.896 45.012C30.2427 45.0307 29.524 45.04 28.74 45.04H27.746V44.074ZM27.746 36.57H33.64V37.536H28.908V44.41H27.746V36.57ZM28.614 40.126H33.36V41.064H28.614V40.126ZM35.768 35.422H36.93V48.092H35.768V35.422ZM36.664 40.504H39.002V41.484H36.664V40.504Z" fill="#A6A8AB"/>
</svg>
