<svg width="53" height="55" viewBox="0 0 53 55" fill="none" xmlns="http://www.w3.org/2000/svg">
<path d="M31 25.7504C31 25.9494 30.921 26.1401 30.7803 26.2808C30.6397 26.4214 30.4489 26.5004 30.25 26.5004H22.75C22.5511 26.5004 22.3603 26.4214 22.2197 26.2808C22.079 26.1401 22 25.9494 22 25.7504C22 25.5515 22.079 25.3608 22.2197 25.2201C22.3603 25.0795 22.5511 25.0004 22.75 25.0004H30.25C30.4489 25.0004 30.6397 25.0795 30.7803 25.2201C30.921 25.3608 31 25.5515 31 25.7504ZM34.75 13.7504C34.7532 15.0007 34.4708 16.2352 33.9242 17.3597C33.3776 18.4842 32.5814 19.469 31.5962 20.2389C31.412 20.3801 31.2626 20.5615 31.1592 20.7693C31.0559 20.9772 31.0014 21.2058 31 21.4379V22.0004C31 22.3983 30.842 22.7798 30.5607 23.0611C30.2794 23.3424 29.8978 23.5004 29.5 23.5004H23.5C23.1022 23.5004 22.7206 23.3424 22.4393 23.0611C22.158 22.7798 22 22.3983 22 22.0004V21.4379C21.9998 21.2086 21.9471 20.9824 21.8459 20.7766C21.7446 20.5709 21.5975 20.3911 21.4159 20.2511C20.4333 19.4857 19.6375 18.5069 19.089 17.3886C18.5405 16.2703 18.2536 15.0419 18.25 13.7964C18.2256 9.32825 21.8369 5.60732 26.3013 5.50044C27.4013 5.47393 28.4955 5.66774 29.5195 6.07046C30.5434 6.47317 31.4765 7.07666 32.2638 7.8454C33.051 8.61414 33.6766 9.5326 34.1035 10.5467C34.5305 11.5608 34.7503 12.6501 34.75 13.7504ZM31.7397 12.8748C31.5452 11.7885 31.0226 10.7879 30.2422 10.0077C29.4618 9.22741 28.461 8.705 27.3747 8.51075C27.2776 8.49438 27.1781 8.4973 27.0821 8.51934C26.9861 8.54139 26.8954 8.58213 26.8151 8.63924C26.7349 8.69634 26.6666 8.7687 26.6143 8.85218C26.562 8.93566 26.5267 9.02862 26.5103 9.12575C26.4939 9.22289 26.4969 9.3223 26.5189 9.41831C26.5409 9.51432 26.5817 9.60505 26.6388 9.68531C26.6959 9.76558 26.7683 9.83381 26.8517 9.88611C26.9352 9.93841 27.0282 9.97375 27.1253 9.99013C28.6788 10.2517 29.9969 11.5698 30.2603 13.1261C30.29 13.3007 30.3806 13.4593 30.5159 13.5736C30.6513 13.6878 30.8228 13.7505 31 13.7504C31.0424 13.7502 31.0847 13.7467 31.1266 13.7401C31.3226 13.7067 31.4973 13.5967 31.6123 13.4344C31.7273 13.2722 31.7731 13.0709 31.7397 12.8748Z" fill="#A6A8AB"/>
<path d="M4.80219 36.402C5.42752 36.402 5.97819 36.584 6.45419 36.948C6.93019 37.3027 7.30352 37.8113 7.57419 38.474C7.84485 39.1367 7.98019 39.916 7.98019 40.812C7.98019 41.708 7.84485 42.4873 7.57419 43.15C7.30352 43.8127 6.93019 44.326 6.45419 44.69C5.97819 45.054 5.42752 45.236 4.80219 45.236C4.18619 45.236 3.63552 45.054 3.15019 44.69C2.67419 44.326 2.30085 43.8127 2.03019 43.15C1.75952 42.4873 1.62419 41.708 1.62419 40.812C1.62419 39.916 1.75952 39.1367 2.03019 38.474C2.30085 37.8113 2.67419 37.3027 3.15019 36.948C3.63552 36.584 4.18619 36.402 4.80219 36.402ZM4.80219 37.438C4.40085 37.438 4.04152 37.578 3.72419 37.858C3.41619 38.1287 3.17352 38.5207 2.99619 39.034C2.81885 39.538 2.73019 40.1307 2.73019 40.812C2.73019 41.4933 2.81885 42.0907 2.99619 42.604C3.17352 43.108 3.41619 43.5 3.72419 43.78C4.04152 44.06 4.40552 44.2 4.81619 44.2C5.21752 44.2 5.57219 44.06 5.88019 43.78C6.19752 43.5 6.44019 43.108 6.60819 42.604C6.78552 42.0907 6.87419 41.4933 6.87419 40.812C6.87419 40.1307 6.78552 39.538 6.60819 39.034C6.44019 38.5207 6.19752 38.1287 5.88019 37.858C5.57219 37.578 5.21285 37.438 4.80219 37.438ZM10.0102 35.422H11.1722V48.092H10.0102V35.422ZM10.9062 40.476H13.2442V41.456H10.9062V40.476ZM23.5191 35.422H24.6811V48.106H23.5191V35.422ZM18.0031 36.402C18.6284 36.402 19.1791 36.584 19.6551 36.948C20.1404 37.3027 20.5184 37.8113 20.7891 38.474C21.0691 39.1367 21.2091 39.916 21.2091 40.812C21.2091 41.708 21.0691 42.4873 20.7891 43.15C20.5184 43.8127 20.1404 44.326 19.6551 44.69C19.1791 45.054 18.6284 45.236 18.0031 45.236C17.3778 45.236 16.8224 45.054 16.3371 44.69C15.8518 44.326 15.4691 43.8127 15.1891 43.15C14.9184 42.4873 14.7831 41.708 14.7831 40.812C14.7831 39.916 14.9184 39.1367 15.1891 38.474C15.4691 37.8113 15.8518 37.3027 16.3371 36.948C16.8224 36.584 17.3778 36.402 18.0031 36.402ZM18.0031 37.438C17.5831 37.438 17.2144 37.578 16.8971 37.858C16.5891 38.1287 16.3464 38.5207 16.1691 39.034C15.9918 39.538 15.9031 40.1307 15.9031 40.812C15.9031 41.4933 15.9918 42.0907 16.1691 42.604C16.3464 43.108 16.5891 43.5 16.8971 43.78C17.2144 44.06 17.5831 44.2 18.0031 44.2C18.4138 44.2 18.7731 44.06 19.0811 43.78C19.3984 43.5 19.6458 43.108 19.8231 42.604C20.0004 42.0907 20.0891 41.4933 20.0891 40.812C20.0891 40.1307 20.0004 39.538 19.8231 39.034C19.6458 38.5207 19.3984 38.1287 19.0811 37.858C18.7731 37.578 18.4138 37.438 18.0031 37.438ZM36.398 35.422H37.56V48.106H36.398V35.422ZM28.012 43.976H29.034C29.874 43.976 30.63 43.9667 31.302 43.948C31.974 43.9293 32.6087 43.8873 33.206 43.822C33.8127 43.7567 34.4287 43.668 35.054 43.556L35.166 44.536C34.5313 44.6573 33.906 44.7507 33.29 44.816C32.674 44.872 32.0253 44.914 31.344 44.942C30.6627 44.9607 29.8927 44.97 29.034 44.97H28.012V43.976ZM28.012 36.626H33.99V37.592H29.174V44.34H28.012V36.626ZM43.4529 36.402C44.0689 36.402 44.6149 36.584 45.0909 36.948C45.5669 37.3027 45.9356 37.8113 46.1969 38.474C46.4676 39.1367 46.6029 39.916 46.6029 40.812C46.6029 41.708 46.4676 42.4873 46.1969 43.15C45.9356 43.8127 45.5669 44.326 45.0909 44.69C44.6149 45.054 44.0689 45.236 43.4529 45.236C42.8462 45.236 42.3002 45.054 41.8149 44.69C41.3389 44.326 40.9656 43.8127 40.6949 43.15C40.4336 42.4873 40.3029 41.708 40.3029 40.812C40.3029 39.916 40.4336 39.1367 40.6949 38.474C40.9656 37.8113 41.3389 37.3027 41.8149 36.948C42.3002 36.584 42.8462 36.402 43.4529 36.402ZM43.4529 37.438C43.0516 37.438 42.6969 37.578 42.3889 37.858C42.0809 38.1287 41.8382 38.5207 41.6609 39.034C41.4929 39.538 41.4089 40.1307 41.4089 40.812C41.4089 41.4933 41.4929 42.0907 41.6609 42.604C41.8382 43.108 42.0809 43.5 42.3889 43.78C42.6969 44.06 43.0516 44.2 43.4529 44.2C43.8636 44.2 44.2229 44.06 44.5309 43.78C44.8389 43.5 45.0769 43.108 45.2449 42.604C45.4222 42.0907 45.5109 41.4933 45.5109 40.812C45.5109 40.1307 45.4222 39.538 45.2449 39.034C45.0769 38.5207 44.8389 38.1287 44.5309 37.858C44.2229 37.578 43.8636 37.438 43.4529 37.438ZM49.3469 35.422H50.4949V48.106H49.3469V35.422ZM46.2249 40.252H49.8649V41.19H46.2249V40.252Z" fill="#A6A8AB"/>
</svg>
