<svg width="53" height="55" viewBox="0 0 53 55" fill="none" xmlns="http://www.w3.org/2000/svg">
<path d="M36.4684 10.5175C36.3801 10.1719 36.2109 9.85224 35.9747 9.58491C35.7385 9.31758 35.4421 9.11024 35.11 8.98C31.8962 7.73875 26.7812 7.75 26.5 7.75C26.2188 7.75 21.1037 7.73875 17.89 8.98C17.5579 9.11024 17.2615 9.31758 17.0253 9.58491C16.7891 9.85224 16.6199 10.1719 16.5316 10.5175C16.2888 11.4531 16 13.1631 16 16C16 18.8369 16.2888 20.5469 16.5316 21.4825C16.6198 21.8283 16.789 22.1481 17.0252 22.4156C17.2614 22.6831 17.5578 22.8906 17.89 23.0209C20.9688 24.2088 25.7875 24.25 26.4381 24.25H26.5619C27.2125 24.25 32.0341 24.2088 35.11 23.0209C35.4422 22.8906 35.7386 22.6831 35.9748 22.4156C36.211 22.1481 36.3802 21.8283 36.4684 21.4825C36.7113 20.545 37 18.8369 37 16C37 13.1631 36.7113 11.4531 36.4684 10.5175ZM29.5553 16.6113L25.8053 19.2363C25.6931 19.3148 25.5616 19.3612 25.4249 19.3703C25.2883 19.3794 25.1517 19.351 25.0301 19.288C24.9085 19.225 24.8064 19.1299 24.735 19.013C24.6636 18.8962 24.6256 18.762 24.625 18.625V13.375C24.625 13.2378 24.6627 13.1032 24.7339 12.986C24.8051 12.8687 24.9071 12.7732 25.0289 12.7099C25.1506 12.6465 25.2873 12.6178 25.4242 12.6268C25.5611 12.6358 25.6929 12.6822 25.8053 12.7609L29.5553 15.3859C29.654 15.4551 29.7345 15.547 29.7901 15.6539C29.8457 15.7608 29.8747 15.8795 29.8747 16C29.8747 16.1205 29.8457 16.2392 29.7901 16.3461C29.7345 16.453 29.654 16.5449 29.5553 16.6141V16.6113Z" fill="#A6A8AB"/>
<path d="M14.3211 45.558H25.8011V46.524H14.3211V45.558ZM19.4591 42.856H20.6071V45.964H19.4591V42.856ZM15.7211 36.36H24.3731V40.196H16.8971V42.73H15.7491V39.272H23.2251V37.312H15.7211V36.36ZM15.7491 42.24H24.6671V43.192H15.7491V42.24ZM28.418 36.696H36.566V37.648H28.418V36.696ZM27.2 45.348H38.638V46.314H27.2V45.348ZM31.652 40.826H32.8V45.838H31.652V40.826ZM36.118 36.696H37.28V37.942C37.28 38.4647 37.2707 39.0153 37.252 39.594C37.2427 40.1727 37.2053 40.8073 37.14 41.498C37.084 42.1887 36.9767 42.9587 36.818 43.808L35.642 43.668C35.8847 42.4547 36.0247 41.3907 36.062 40.476C36.0993 39.552 36.118 38.7073 36.118 37.942V36.696Z" fill="#A6A8AB"/>
</svg>
