<svg width="53" height="55" viewBox="0 0 53 55" fill="none" xmlns="http://www.w3.org/2000/svg">
<path d="M37.3103 16.75L28 7.43969C27.8612 7.2998 27.696 7.18889 27.514 7.11341C27.332 7.03792 27.1368 6.99938 26.9397 7.00001H18.25C18.0511 7.00001 17.8603 7.07903 17.7197 7.21968C17.579 7.36033 17.5 7.5511 17.5 7.75001V16.4397C17.4994 16.6368 17.5379 16.832 17.6134 17.014C17.6889 17.196 17.7998 17.3612 17.9397 17.5L27.25 26.8103C27.3893 26.9496 27.5547 27.0602 27.7367 27.1356C27.9187 27.211 28.1138 27.2498 28.3108 27.2498C28.5078 27.2498 28.7029 27.211 28.8849 27.1356C29.0669 27.0602 29.2323 26.9496 29.3716 26.8103L37.3103 18.8716C37.4496 18.7323 37.5602 18.5669 37.6356 18.3849C37.711 18.2029 37.7498 18.0078 37.7498 17.8108C37.7498 17.6138 37.711 17.4187 37.6356 17.2367C37.5602 17.0547 37.4496 16.8893 37.3103 16.75ZM22.375 13C22.1525 13 21.935 12.934 21.75 12.8104C21.565 12.6868 21.4208 12.5111 21.3356 12.3055C21.2505 12.1 21.2282 11.8738 21.2716 11.6555C21.315 11.4373 21.4222 11.2368 21.5795 11.0795C21.7368 10.9222 21.9373 10.815 22.1555 10.7716C22.3738 10.7282 22.6 10.7505 22.8055 10.8356C23.0111 10.9208 23.1868 11.065 23.3104 11.25C23.434 11.435 23.5 11.6525 23.5 11.875C23.5 12.1734 23.3815 12.4595 23.1705 12.6705C22.9595 12.8815 22.6734 13 22.375 13Z" fill="#A6A8AB"/>
<path d="M8.48364 36.78H9.64564V44.2H8.48364V36.78ZM8.48364 43.878H9.29564C10.033 43.878 10.7563 43.8547 11.4656 43.808C12.1843 43.752 12.9403 43.64 13.7336 43.472L13.9016 44.466C13.071 44.6433 12.287 44.76 11.5496 44.816C10.8216 44.8627 10.0703 44.886 9.29564 44.886H8.48364V43.878ZM17.5276 35.422H18.6476V48.092H17.5276V35.422ZM12.0116 39.678H15.1616V40.63H12.0116V39.678ZM14.8396 35.73H15.9456V47.448H14.8396V35.73ZM29.9585 35.422H31.1205V48.106H29.9585V35.422ZM24.4425 36.402C25.0679 36.402 25.6185 36.584 26.0945 36.948C26.5799 37.3027 26.9579 37.8113 27.2285 38.474C27.5085 39.1367 27.6485 39.916 27.6485 40.812C27.6485 41.708 27.5085 42.4873 27.2285 43.15C26.9579 43.8127 26.5799 44.326 26.0945 44.69C25.6185 45.054 25.0679 45.236 24.4425 45.236C23.8172 45.236 23.2619 45.054 22.7765 44.69C22.2912 44.326 21.9085 43.8127 21.6285 43.15C21.3579 42.4873 21.2225 41.708 21.2225 40.812C21.2225 39.916 21.3579 39.1367 21.6285 38.474C21.9085 37.8113 22.2912 37.3027 22.7765 36.948C23.2619 36.584 23.8172 36.402 24.4425 36.402ZM24.4425 37.438C24.0225 37.438 23.6539 37.578 23.3365 37.858C23.0285 38.1287 22.7859 38.5207 22.6085 39.034C22.4312 39.538 22.3425 40.1307 22.3425 40.812C22.3425 41.4933 22.4312 42.0907 22.6085 42.604C22.7859 43.108 23.0285 43.5 23.3365 43.78C23.6539 44.06 24.0225 44.2 24.4425 44.2C24.8532 44.2 25.2125 44.06 25.5205 43.78C25.8379 43.5 26.0852 43.108 26.2625 42.604C26.4399 42.0907 26.5285 41.4933 26.5285 40.812C26.5285 40.1307 26.4399 39.538 26.2625 39.034C26.0852 38.5207 25.8379 38.1287 25.5205 37.858C25.2125 37.578 24.8532 37.438 24.4425 37.438ZM34.2975 36.36H40.2055V41.876H34.2975V36.36ZM39.0715 37.298H35.4315V40.938H39.0715V37.298ZM42.8515 35.436H44.0135V42.996H42.8515V35.436ZM39.8415 43.22C40.7188 43.22 41.4701 43.318 42.0955 43.514C42.7301 43.7007 43.2201 43.976 43.5655 44.34C43.9108 44.6947 44.0835 45.1287 44.0835 45.642C44.0835 46.146 43.9108 46.58 43.5655 46.944C43.2201 47.308 42.7301 47.5833 42.0955 47.77C41.4701 47.966 40.7188 48.064 39.8415 48.064C38.9641 48.064 38.2081 47.966 37.5735 47.77C36.9388 47.5833 36.4488 47.308 36.1035 46.944C35.7581 46.58 35.5855 46.146 35.5855 45.642C35.5855 45.1287 35.7581 44.6947 36.1035 44.34C36.4488 43.976 36.9388 43.7007 37.5735 43.514C38.2081 43.318 38.9641 43.22 39.8415 43.22ZM39.8415 44.144C39.1975 44.144 38.6421 44.2047 38.1755 44.326C37.7181 44.438 37.3635 44.606 37.1115 44.83C36.8688 45.054 36.7475 45.3247 36.7475 45.642C36.7475 45.95 36.8688 46.216 37.1115 46.44C37.3635 46.664 37.7181 46.8367 38.1755 46.958C38.6421 47.0793 39.1975 47.14 39.8415 47.14C40.4761 47.14 41.0221 47.0793 41.4795 46.958C41.9461 46.8367 42.3008 46.664 42.5435 46.44C42.7955 46.216 42.9215 45.95 42.9215 45.642C42.9215 45.3247 42.7955 45.054 42.5435 44.83C42.3008 44.606 41.9461 44.438 41.4795 44.326C41.0221 44.2047 40.4761 44.144 39.8415 44.144Z" fill="#A6A8AB"/>
</svg>
