<svg width="53" height="55" viewBox="0 0 53 55" fill="none" xmlns="http://www.w3.org/2000/svg">
<path d="M37.3103 11.6272L30.8716 5.18848C30.7323 5.04916 30.5669 4.93864 30.3849 4.86324C30.2029 4.78783 30.0078 4.74902 29.8108 4.74902C29.6138 4.74902 29.4187 4.78783 29.2367 4.86324C29.0547 4.93864 28.8893 5.04916 28.75 5.18848L26.0837 7.85473L20.6462 9.89473C20.3992 9.98667 20.1807 10.1421 20.0128 10.3454C19.8449 10.5486 19.7336 10.7925 19.69 11.0525L17.7428 22.7338C17.7298 22.8121 17.7419 22.8926 17.7775 22.9636C17.8131 23.0345 17.8703 23.0924 17.9409 23.1288C18.0115 23.1651 18.0918 23.1782 18.1702 23.166C18.2487 23.1538 18.3213 23.1171 18.3775 23.061L23.7212 17.7172C23.5519 17.365 23.4779 16.9745 23.5066 16.5847C23.5414 16.1052 23.729 15.6495 24.0417 15.2843C24.3544 14.9191 24.7759 14.6638 25.2444 14.5556C25.7128 14.4474 26.2036 14.4921 26.6448 14.6832C27.086 14.8742 27.4544 15.2016 27.6959 15.6173C27.9375 16.0329 28.0396 16.5151 27.9872 16.993C27.9349 17.4709 27.7308 17.9195 27.4049 18.273C27.079 18.6265 26.6485 18.8663 26.1764 18.9572C25.7043 19.0482 25.2155 18.9856 24.7816 18.7785L19.4378 24.1222C19.3817 24.1785 19.345 24.251 19.3328 24.3295C19.3206 24.408 19.3336 24.4883 19.37 24.5589C19.4064 24.6294 19.4643 24.6866 19.5352 24.7222C19.6062 24.7578 19.6867 24.77 19.765 24.7569L31.4472 22.8097C31.7068 22.7665 31.9504 22.6557 32.1536 22.4885C32.3569 22.3213 32.5125 22.1036 32.605 21.8572L34.6459 16.4132L37.3103 13.7497C37.4496 13.6104 37.5601 13.4451 37.6356 13.2631C37.711 13.081 37.7498 12.886 37.7498 12.689C37.7498 12.4919 37.711 12.2969 37.6356 12.1148C37.5601 11.9328 37.4496 11.7675 37.3103 11.6282V11.6272ZM34 14.9385L27.5612 8.49973L29.8112 6.24973L36.25 12.6885L34 14.9385Z" fill="#A6A8AB"/>
<path d="M7.88164 45.544H19.3616V46.524H7.88164V45.544ZM13.0056 42.268H14.1536V45.978H13.0056V42.268ZM8.88964 36.64H18.2836V37.592H8.88964V36.64ZM8.91764 41.736H18.2556V42.66H8.91764V41.736ZM10.8496 37.396H12.0116V41.89H10.8496V37.396ZM15.1616 37.396H16.3096V41.89H15.1616V37.396ZM22.2305 42.002H30.9245V42.94H22.2305V42.002ZM20.7605 45.558H32.2405V46.51H20.7605V45.558ZM25.8985 42.478H27.0605V45.992H25.8985V42.478ZM22.2305 36.458H30.7985V37.41H23.4065V42.352H22.2305V36.458ZM23.0425 39.174H30.5185V40.112H23.0425V39.174ZM43.1175 37.13H45.3015V38.082H43.1175V37.13ZM43.1175 39.664H45.3015V40.63H43.1175V39.664ZM36.7475 35.996H37.7135V37.2C37.7135 38.0027 37.5688 38.7447 37.2795 39.426C36.9901 40.1073 36.5841 40.7 36.0615 41.204C35.5388 41.6987 34.9228 42.0813 34.2135 42.352L33.5835 41.428C34.2275 41.204 34.7828 40.882 35.2495 40.462C35.7255 40.042 36.0941 39.552 36.3555 38.992C36.6168 38.4227 36.7475 37.8253 36.7475 37.2V35.996ZM36.9575 35.996H37.8955V37.186C37.8955 37.6153 37.9701 38.0307 38.1195 38.432C38.2781 38.8333 38.4928 39.2067 38.7635 39.552C39.0435 39.8973 39.3701 40.2053 39.7435 40.476C40.1261 40.7467 40.5461 40.9613 41.0035 41.12L40.3875 42.03C39.7061 41.778 39.1088 41.414 38.5955 40.938C38.0821 40.462 37.6808 39.902 37.3915 39.258C37.1021 38.614 36.9575 37.9233 36.9575 37.186V35.996ZM42.3055 35.422H43.4675V42.366H42.3055V35.422ZM35.4875 42.982H36.6355V44.494H42.3055V42.982H43.4675V47.924H35.4875V42.982ZM36.6355 45.418V46.972H42.3055V45.418H36.6355Z" fill="#A6A8AB"/>
</svg>
