<svg width="53" height="55" viewBox="0 0 53 55" fill="none" xmlns="http://www.w3.org/2000/svg">
<path d="M36.25 9.25002V20.5C36.2494 20.6068 36.226 20.7122 36.1814 20.8092C36.1368 20.9062 36.0719 20.9926 35.9913 21.0625C34.5588 22.3028 33.1891 22.75 31.8831 22.75C30.1103 22.75 28.4547 21.9306 26.9144 21.1703C24.4253 19.9375 22.2616 18.8697 19.75 20.8535V25C19.75 25.1989 19.671 25.3897 19.5303 25.5304C19.3897 25.671 19.1989 25.75 19 25.75C18.8011 25.75 18.6103 25.671 18.4697 25.5304C18.329 25.3897 18.25 25.1989 18.25 25V9.25002C18.2507 9.14317 18.2743 9.03771 18.319 8.9407C18.3638 8.84369 18.4288 8.75737 18.5097 8.68752C21.8847 5.76439 24.9137 7.26158 27.5837 8.58252C30.1562 9.85565 32.3866 10.9563 35.0087 8.68752C35.1171 8.59357 35.2502 8.53267 35.3921 8.51203C35.5341 8.4914 35.6789 8.5119 35.8096 8.5711C35.9402 8.63031 36.0512 8.72573 36.1292 8.84607C36.2073 8.9664 36.2492 9.10659 36.25 9.25002Z" fill="#3744FB"/>
<path d="M13.0056 35.52H13.9996V35.982C13.9996 36.4113 13.9063 36.8127 13.7196 37.186C13.533 37.5593 13.281 37.9 12.9636 38.208C12.6463 38.516 12.2683 38.7867 11.8296 39.02C11.4003 39.2533 10.9383 39.4493 10.4436 39.608C9.94897 39.7667 9.43564 39.8787 8.90364 39.944L8.51164 39.062C8.96897 39.006 9.41697 38.9173 9.85564 38.796C10.2943 38.6653 10.7003 38.5067 11.0736 38.32C11.4563 38.124 11.7923 37.9047 12.0816 37.662C12.3803 37.4193 12.609 37.158 12.7676 36.878C12.9263 36.5887 13.0056 36.29 13.0056 35.982V35.52ZM13.2016 35.52H14.1956V35.982C14.1956 36.29 14.275 36.5887 14.4336 36.878C14.5923 37.158 14.8163 37.4193 15.1056 37.662C15.395 37.9047 15.731 38.124 16.1136 38.32C16.4963 38.5067 16.907 38.6653 17.3456 38.796C17.7843 38.9173 18.2323 39.006 18.6896 39.062L18.2836 39.944C17.761 39.8787 17.2523 39.7667 16.7576 39.608C16.263 39.4493 15.801 39.2533 15.3716 39.02C14.9423 38.7867 14.5643 38.516 14.2376 38.208C13.911 37.9 13.6543 37.5593 13.4676 37.186C13.2903 36.8127 13.2016 36.4113 13.2016 35.982V35.52ZM7.88164 40.742H19.3196V41.694H7.88164V40.742ZM9.26764 42.842H17.8496V45.754H10.4296V47.252H9.29564V44.9H16.7156V43.738H9.26764V42.842ZM9.29564 47.042H18.2276V47.952H9.29564V47.042ZM20.7605 45.558H32.2405V46.524H20.7605V45.558ZM25.8985 42.856H27.0465V45.964H25.8985V42.856ZM22.1605 36.36H30.8125V40.196H23.3365V42.73H22.1885V39.272H29.6645V37.312H22.1605V36.36ZM22.1885 42.24H31.1065V43.192H22.1885V42.24ZM42.8935 35.436H44.0555V44.788H42.8935V35.436ZM40.1495 39.328H43.1175V40.294H40.1495V39.328ZM38.9735 36.402H40.2055C40.2055 37.494 39.9628 38.4927 39.4775 39.398C38.9921 40.294 38.3108 41.0733 37.4335 41.736C36.5561 42.3987 35.5201 42.9307 34.3255 43.332L33.8355 42.394C34.8621 42.0487 35.7628 41.6053 36.5375 41.064C37.3121 40.5227 37.9095 39.8973 38.3295 39.188C38.7588 38.4787 38.9735 37.7087 38.9735 36.878V36.402ZM34.4655 36.402H39.7295V37.368H34.4655V36.402ZM36.0475 46.86H44.3775V47.812H36.0475V46.86ZM36.0475 43.836H37.2235V47.336H36.0475V43.836Z" fill="#3744FB"/>
</svg>
