<svg width="32" height="32" viewBox="0 0 32 32" fill="none" xmlns="http://www.w3.org/2000/svg">
<rect width="32" height="32" rx="16" fill="#F1F1F2"/>
<path d="M19.214 9.98152L20.616 8.58052C20.9877 8.20882 21.4918 8 22.0175 8C22.5432 8 23.0473 8.20882 23.419 8.58052C23.7907 8.95222 23.9995 9.45636 23.9995 9.98202C23.9995 10.5077 23.7907 11.0118 23.419 11.3835L22.018 12.7855M19.214 9.98152L10.98 18.2155C9.935 19.2615 9.412 19.7835 9.056 20.4205C8.7 21.0575 8.342 22.5605 8 23.9995C9.438 23.6575 10.942 23.2995 11.579 22.9435C12.216 22.5875 12.739 22.0645 13.784 21.0195L22.018 12.7855M19.214 9.98152L22.018 12.7855M15 23.9995H21" stroke="#231F20" stroke-width="1.5" stroke-linecap="round" stroke-linejoin="round"/>
</svg>
