<svg width="80" height="80" viewBox="0 0 80 80" fill="none" xmlns="http://www.w3.org/2000/svg">
<g clip-path="url(#clip0_107_2476)">
<path d="M77.82 39.91C77.82 60.85 60.85 77.82 39.91 77.82C18.97 77.82 2 60.84 2 39.91C2 18.98 18.97 2 39.91 2C60.85 2 77.82 18.97 77.82 39.91Z" fill="#3744FB" fill-opacity="0.2"/>
<path d="M27.14 61.3001C45.25 83.1201 61.18 57.9001 63.8 39.0801C64.75 31.7801 66.42 21.9501 59.94 16.7201C57.28 14.8701 53.45 14.1101 50.2 17.5301C45.83 21.9201 44.11 27.9401 41.63 33.4201C37.28 39.6401 34.95 15.6301 29.45 14.9101C24.8 12.5001 19.67 15.6001 17.52 19.9001C11.23 33.8201 18.23 50.1201 27.15 61.3001H27.14Z" fill="#3744FB"/>
<path d="M63.1501 38.28C62.0201 33.1 56.9101 29.82 51.7301 30.94C46.5501 32.07 43.2701 37.18 44.3901 42.36L63.1401 38.28H63.1501Z" fill="white"/>
<path d="M47.17 41.76L58.59 39.27C58.57 38.97 58.54 38.66 58.47 38.36C57.78 35.17 54.62 33.14 51.43 33.83C48.24 34.52 46.21 37.68 46.9 40.87C46.97 41.18 47.06 41.47 47.17 41.75V41.76Z" fill="black"/>
<path d="M17.65 37.59C19.12 32.5 24.43 29.55 29.53 31.02C34.62 32.49 37.56 37.8 36.1 42.9L17.65 37.59Z" fill="white"/>
<path d="M33.37 42.12L22.14 38.89C22.18 38.59 22.23 38.29 22.32 37.98C23.22 34.84 26.51 33.02 29.65 33.93C32.79 34.83 34.61 38.12 33.7 41.26C33.61 41.56 33.5 41.85 33.37 42.12Z" fill="black"/>
</g>
<defs>
<clipPath id="clip0_107_2476">
<rect width="75.82" height="75.82" fill="white" transform="translate(2 2)"/>
</clipPath>
</defs>
</svg>
