<svg width="80" height="80" viewBox="0 0 80 80" fill="none" xmlns="http://www.w3.org/2000/svg">
<g clip-path="url(#clip0_107_2478)">
<path d="M77.82 39.91C77.82 60.85 60.85 77.82 39.91 77.82C18.97 77.82 2 60.84 2 39.91C2 18.98 18.97 2 39.91 2C60.85 2 77.82 18.97 77.82 39.91Z" fill="#3744FB" fill-opacity="0.2"/>
<path d="M66.3 39.5299C65.33 32.0499 61.97 26.0099 55.13 22.3899C45.47 17.2799 32.1 16.2299 23.12 23.1899C16.77 28.1199 13.21 34.6099 12.18 42.5399C11.82 45.2899 10.63 53.8599 13.81 55.4699C14.65 55.8899 15.62 55.9099 16.55 55.9299C30.66 56.1199 44.76 56.0899 58.86 56.0899C60.43 56.0599 62 55.9899 63.56 55.7699C64.07 55.6999 64.59 55.5799 65.08 55.4099C65.92 55.1199 66.39 54.4899 66.55 53.6299C66.6 53.3499 66.61 53.0599 66.62 52.7799C66.85 48.3499 66.86 43.9399 66.29 39.5299" fill="#3744FB"/>
<path d="M17.32 37.09C18.16 36.04 19 35.35 19.85 34.73C20.69 34.14 21.53 33.66 22.38 33.3C24.06 32.58 25.75 32.27 27.43 32.26C29.11 32.26 30.8 32.57 32.48 33.29C33.32 33.65 34.16 34.13 35.01 34.72C35.85 35.34 36.69 36.04 37.54 37.1C36.7 38.15 35.86 38.85 35.01 39.48C34.17 40.07 33.33 40.55 32.48 40.91C30.8 41.63 29.11 41.94 27.43 41.94C25.75 41.94 24.06 41.62 22.38 40.9C21.54 40.54 20.7 40.07 19.85 39.47C19.01 38.85 18.17 38.16 17.32 37.11" fill="white"/>
<path d="M32.26 37.09C32.26 39.76 30.1 41.92 27.43 41.92C24.76 41.92 22.6 39.76 22.6 37.09C22.6 34.42 24.76 32.26 27.43 32.26C30.1 32.26 32.26 34.42 32.26 37.09Z" fill="black"/>
<path d="M62.82 37.09C61.98 36.04 61.14 35.35 60.29 34.73C59.45 34.14 58.61 33.66 57.76 33.3C56.08 32.58 54.39 32.27 52.71 32.26C51.03 32.26 49.34 32.57 47.66 33.29C46.82 33.65 45.98 34.13 45.13 34.72C44.29 35.34 43.45 36.04 42.6 37.1C43.44 38.15 44.28 38.85 45.13 39.48C45.97 40.07 46.81 40.55 47.66 40.91C49.34 41.63 51.03 41.94 52.71 41.94C54.39 41.94 56.08 41.62 57.76 40.9C58.6 40.54 59.44 40.07 60.29 39.47C61.13 38.85 61.97 38.16 62.82 37.11" fill="white"/>
<path d="M47.88 37.09C47.88 39.76 50.04 41.92 52.71 41.92C55.38 41.92 57.54 39.76 57.54 37.09C57.54 34.42 55.38 32.26 52.71 32.26C50.04 32.26 47.88 34.42 47.88 37.09Z" fill="black"/>
</g>
<defs>
<clipPath id="clip0_107_2478">
<rect width="75.82" height="75.82" fill="white" transform="translate(2 2)"/>
</clipPath>
</defs>
</svg>
