<svg width="80" height="80" viewBox="0 0 80 80" fill="none" xmlns="http://www.w3.org/2000/svg">
<g clip-path="url(#clip0_107_2475)">
<path d="M77.82 39.91C77.82 60.85 60.85 77.82 39.91 77.82C18.97 77.82 2 60.84 2 39.91C2 18.98 18.97 2 39.91 2C60.85 2 77.82 18.97 77.82 39.91Z" fill="#3744FB" fill-opacity="0.2"/>
<path d="M45.13 24.0799C40.11 25.8699 34.09 28.2799 30.43 23.4499C29.78 22.5899 29.31 21.6799 28.34 21.1199C25.42 19.4399 20.96 21.8899 18.68 23.6799C8.45002 31.7299 5.13002 50.8699 18.67 57.7799C21.83 59.3899 25.45 59.6399 28.86 58.7699C33.18 57.6699 36.68 54.6499 40.93 53.3199C44.73 52.1299 49.29 52.2699 52.74 54.4299C54.42 55.4799 55.72 56.6899 57.89 56.6099C65.74 56.3199 69.16 46.9699 69.98 40.0099C70.66 33.1399 68.66 25.8299 61.7 23.1099C57.21 21.3499 52.36 21.9199 47.82 23.1899C46.97 23.4299 46.07 23.7399 45.13 24.0699V24.0799Z" fill="#3744FB"/>
<path d="M34.43 34.15C33.93 34.15 33.46 33.83 33.29 33.33C33.24 33.2 32.03 29.88 27.75 29.88C23.47 29.88 22.47 33.15 22.43 33.29C22.24 33.92 21.57 34.29 20.94 34.1C20.31 33.91 19.94 33.25 20.12 32.62C20.63 30.84 22.89 27.48 27.75 27.48C30.89 27.48 32.84 28.85 33.93 29.99C35.09 31.22 35.53 32.44 35.57 32.57C35.78 33.2 35.44 33.88 34.81 34.09C34.68 34.13 34.55 34.15 34.43 34.15Z" fill="black"/>
<path d="M45.21 34.15C45.71 34.15 46.18 33.83 46.35 33.33C46.4 33.2 47.61 29.88 51.89 29.88C56.17 29.88 57.17 33.15 57.21 33.29C57.4 33.92 58.07 34.29 58.7 34.1C59.33 33.91 59.7 33.25 59.52 32.62C59.01 30.84 56.75 27.48 51.89 27.48C48.75 27.48 46.8 28.85 45.71 29.99C44.55 31.22 44.11 32.44 44.07 32.57C43.86 33.2 44.2 33.88 44.83 34.09C44.96 34.13 45.09 34.15 45.21 34.15Z" fill="black"/>
<path d="M57.7801 43.18C57.7801 39.38 54.7001 36.29 50.8901 36.29C47.0801 36.29 44.0001 39.37 44.0001 43.18H57.7801Z" fill="white"/>
<path d="M46.0401 43.18H54.43C54.46 42.96 54.4901 42.75 54.4901 42.52C54.4901 40.18 52.5801 38.27 50.2401 38.27C47.9001 38.27 45.9901 40.18 45.9901 42.52C45.9901 42.74 46.01 42.96 46.05 43.18H46.0401Z" fill="black"/>
<path d="M21.86 43.18C21.86 39.38 24.94 36.29 28.75 36.29C32.56 36.29 35.64 39.37 35.64 43.18H21.86Z" fill="white"/>
<path d="M33.6 43.18H25.21C25.18 42.96 25.15 42.75 25.15 42.52C25.15 40.18 27.06 38.27 29.4 38.27C31.74 38.27 33.65 40.18 33.65 42.52C33.65 42.74 33.63 42.96 33.59 43.18H33.6Z" fill="black"/>
</g>
<defs>
<clipPath id="clip0_107_2475">
<rect width="75.82" height="75.82" fill="white" transform="translate(2 2)"/>
</clipPath>
</defs>
</svg>
