<svg width="80" height="80" viewBox="0 0 80 80" fill="none" xmlns="http://www.w3.org/2000/svg">
<g clip-path="url(#clip0_107_2477)">
<path d="M75.82 39.91C75.82 59.7454 59.7454 75.82 39.91 75.82C20.0749 75.82 4 59.7358 4 39.91C4 20.0842 20.0749 4 39.91 4C59.7454 4 75.82 20.0746 75.82 39.91Z" fill="#3744FB" fill-opacity="0.2" stroke="#3744FB" stroke-width="4"/>
<path d="M12.56 23.5601V51.7501C12.56 54.7101 14.96 57.1101 17.92 57.1101H67.25V28.9201C67.25 25.9601 64.85 23.5601 61.89 23.5601H12.56Z" fill="#3744FB"/>
<path d="M34.47 29.24C33.98 29.24 33.52 28.93 33.35 28.44C33.3 28.31 32.11 25.0599 27.93 25.0599C23.75 25.0599 22.76 28.26 22.72 28.4C22.53 29.0199 21.88 29.37 21.26 29.19C20.64 29.01 20.28 28.36 20.46 27.74C20.96 26 23.17 22.7 27.94 22.7C31.01 22.7 32.93 24.04 33.99 25.16C35.13 26.36 35.55 27.56 35.6 27.69C35.81 28.31 35.47 28.98 34.86 29.18C34.74 29.22 34.61 29.24 34.48 29.24" fill="black"/>
<path d="M45.02 29.24C45.51 29.24 45.97 28.93 46.14 28.44C46.19 28.31 47.38 25.0599 51.56 25.0599C55.74 25.0599 56.73 28.26 56.77 28.4C56.96 29.0199 57.61 29.37 58.23 29.19C58.85 29.01 59.21 28.36 59.03 27.74C58.53 26 56.32 22.7 51.55 22.7C48.48 22.7 46.56 24.04 45.5 25.16C44.36 26.36 43.94 27.56 43.89 27.69C43.68 28.31 44.02 28.98 44.63 29.18C44.75 29.22 44.88 29.24 45.01 29.24" fill="black"/>
<path d="M57.33 38.0801C57.33 34.3601 54.31 31.3401 50.59 31.3401C46.87 31.3401 43.85 34.3601 43.85 38.0801H57.34H57.33Z" fill="white"/>
<path d="M45.84 38.08H54.05C54.08 37.87 54.11 37.65 54.11 37.43C54.11 35.14 52.24 33.27 49.95 33.27C47.66 33.27 45.79 35.14 45.79 37.43C45.79 37.65 45.81 37.87 45.84 38.08Z" fill="black"/>
<path d="M22.16 38.0801C22.16 34.3601 25.18 31.3401 28.9 31.3401C32.62 31.3401 35.64 34.3601 35.64 38.0801H22.15H22.16Z" fill="white"/>
<path d="M33.65 38.08H25.44C25.41 37.87 25.38 37.65 25.38 37.43C25.38 35.14 27.25 33.27 29.54 33.27C31.83 33.27 33.7 35.14 33.7 37.43C33.7 37.65 33.68 37.87 33.65 38.08Z" fill="black"/>
</g>
<defs>
<clipPath id="clip0_107_2477">
<rect width="75.82" height="75.82" fill="white" transform="translate(2 2)"/>
</clipPath>
</defs>
</svg>
