<svg width="24" height="24" viewBox="0 0 24 24" fill="none" xmlns="http://www.w3.org/2000/svg">
<path d="M18 2V4M6 2V4M11.996 13H12.004M11.996 17H12.004M15.991 13H16M8 13H8.009M8 17H8.009M3.5 8H20.5M3 8H21M2.5 12.243C2.5 7.886 2.5 5.707 3.752 4.353C5.004 3 7.02 3 11.05 3H12.95C16.98 3 18.996 3 20.248 4.354C21.5 5.707 21.5 7.886 21.5 12.244V12.757C21.5 17.114 21.5 19.293 20.248 20.647C18.996 22 16.98 22 12.95 22H11.05C7.02 22 5.004 22 3.752 20.646C2.5 19.293 2.5 17.114 2.5 12.756V12.243Z" stroke="#231F20" stroke-width="1.5" stroke-linecap="round" stroke-linejoin="round"/>
</svg>
