<svg width="24" height="24" viewBox="0 0 24 24" fill="none" xmlns="http://www.w3.org/2000/svg">
<path d="M7 6C5.78 6.004 5.104 6.033 4.549 6.266C3.76856 6.59514 3.13546 7.19837 2.769 7.962C2.466 8.587 2.417 9.388 2.318 10.99L2.163 13.5C1.917 17.485 1.795 19.477 2.963 20.739C4.134 22 6.104 22 10.043 22H13.959C17.899 22 19.869 22 21.037 20.739C22.207 19.477 22.084 17.485 21.837 13.501L21.683 10.991C21.584 9.388 21.535 8.587 21.233 7.961C20.8663 7.19775 20.2333 6.5949 19.453 6.266C18.895 6.033 18.22 6.004 17 6" stroke="#D0D2D3" stroke-width="1.5" stroke-linecap="round" stroke-linejoin="round"/>
<path d="M17 7L16.114 4.785C15.732 3.83 15.399 2.746 14.417 2.26C13.892 2 13.262 2 12 2C10.738 2 10.108 2 9.583 2.26C8.601 2.746 8.268 3.83 7.886 4.785L7 7M12 6H12.009M15.5 14C15.5 14.4596 15.4095 14.9148 15.2336 15.3394C15.0577 15.764 14.7999 16.1499 14.4749 16.4749C14.1499 16.7999 13.764 17.0577 13.3394 17.2336C12.9148 17.4095 12.4596 17.5 12 17.5C11.5404 17.5 11.0852 17.4095 10.6606 17.2336C10.236 17.0577 9.85013 16.7999 9.52513 16.4749C9.20012 16.1499 8.94231 15.764 8.76642 15.3394C8.59053 14.9148 8.5 14.4596 8.5 14C8.5 13.0717 8.86875 12.1815 9.52513 11.5251C10.1815 10.8687 11.0717 10.5 12 10.5C12.9283 10.5 13.8185 10.8687 14.4749 11.5251C15.1313 12.1815 15.5 13.0717 15.5 14Z" stroke="#D0D2D3" stroke-width="1.5" stroke-linecap="round" stroke-linejoin="round"/>
</svg>
