<svg width="24" height="24" viewBox="0 0 24 24" fill="none" xmlns="http://www.w3.org/2000/svg">
<path d="M15.214 5.98152L16.616 4.58052C16.9877 4.20882 17.4918 4 18.0175 4C18.5432 4 19.0473 4.20882 19.419 4.58052C19.7907 4.95222 19.9995 5.45636 19.9995 5.98202C19.9995 6.50768 19.7907 7.01182 19.419 7.38352L18.018 8.78552M15.214 5.98152L6.98 14.2155C5.935 15.2615 5.412 15.7835 5.056 16.4205C4.7 17.0575 4.342 18.5605 4 19.9995C5.438 19.6575 6.942 19.2995 7.579 18.9435C8.216 18.5875 8.739 18.0645 9.784 17.0195L18.018 8.78552M15.214 5.98152L18.018 8.78552M11 19.9995H17" stroke="#231F20" stroke-width="1.5" stroke-linecap="round" stroke-linejoin="round"/>
</svg>
