<svg width="30" height="30" viewBox="0 0 30 30" fill="none" xmlns="http://www.w3.org/2000/svg">
<path d="M3.16251 18.4625C2.89626 20.205 4.08501 21.4138 5.54001 22.0163C11.1188 24.3288 18.8813 24.3288 24.46 22.0163C25.915 21.4138 27.1038 20.2038 26.8375 18.4625C26.675 17.3913 25.8663 16.5 25.2675 15.6288C24.4838 14.4738 24.4063 13.215 24.405 11.875C24.4063 6.6975 20.1963 2.5 15 2.5C9.80376 2.5 5.59376 6.6975 5.59376 11.875C5.59376 13.215 5.51626 14.475 4.73126 15.6288C4.13376 16.5 3.32626 17.3913 3.16251 18.4625Z" stroke="#231F20" stroke-width="1.5" stroke-linecap="round" stroke-linejoin="round"/>
<path d="M10 23.75C10.5725 25.9063 12.595 27.5 15 27.5C17.4062 27.5 19.4263 25.9063 20 23.75" stroke="#231F20" stroke-width="1.5" stroke-linecap="round" stroke-linejoin="round"/>
<circle cx="23" cy="5" r="3" fill="#FF4040"/>
</svg>
