<svg width="24" height="24" viewBox="0 0 24 24" fill="none" xmlns="http://www.w3.org/2000/svg">
<path d="M11.08 13.152L8 7L13.42 11.28C14.19 11.888 14.194 13.047 13.428 13.66C13.2485 13.8038 13.0391 13.9058 12.8152 13.9585C12.5913 14.0111 12.3584 14.0132 12.1336 13.9646C11.9088 13.9159 11.6976 13.8177 11.5155 13.6772C11.3335 13.5366 11.185 13.3572 11.081 13.152" stroke="white" stroke-width="1.5" stroke-linecap="round" stroke-linejoin="round"/>
<path d="M5 4.8204C4.04828 5.75326 3.29262 6.86695 2.77743 8.09602C2.26225 9.32508 1.99792 10.6447 2 11.9774C2 17.5134 6.477 22.0004 12 22.0004C17.523 22.0004 22 17.5134 22 11.9774C22.0016 9.66714 21.2049 7.4273 19.7447 5.63705C18.2844 3.8468 16.2504 2.61614 13.987 2.1534C13.151 1.9834 12.733 1.8994 12.367 2.2004C12 2.5004 12 2.9874 12 3.9604V4.9624" stroke="white" stroke-width="1.5" stroke-linecap="round" stroke-linejoin="round"/>
</svg>
