<svg width="36" height="18" viewBox="0 0 36 18" fill="none" xmlns="http://www.w3.org/2000/svg">
<path d="M0 10C0 4.47715 4.47715 0 10 0H27C31.9706 0 36 4.02944 36 9C36 13.9706 31.9706 18 27 18H0V10Z" fill="#FF4040"/>
<path d="M12.619 14H10.955V9.879H6.873V14H5.209V4.718H6.873V8.462H10.955V4.718H12.619V14ZM23.3292 9.346C23.3292 10.0653 23.2382 10.7197 23.0562 11.309C22.8828 11.8897 22.6142 12.3923 22.2502 12.817C21.8948 13.2417 21.4398 13.5667 20.8852 13.792C20.3392 14.0173 19.6978 14.13 18.9612 14.13C18.2158 14.13 17.5658 14.0173 17.0112 13.792C16.4652 13.558 16.0145 13.233 15.6592 12.817C15.3038 12.3923 15.0352 11.8853 14.8532 11.296C14.6798 10.7067 14.5932 10.0523 14.5932 9.333C14.5932 8.371 14.7492 7.53467 15.0612 6.824C15.3818 6.11333 15.8628 5.563 16.5042 5.173C17.1542 4.77433 17.9775 4.575 18.9742 4.575C19.9535 4.575 20.7638 4.77433 21.4052 5.173C22.0465 5.563 22.5275 6.11767 22.8482 6.837C23.1688 7.54767 23.3292 8.384 23.3292 9.346ZM16.3482 9.346C16.3482 10.048 16.4392 10.6503 16.6212 11.153C16.8118 11.6557 17.0978 12.0413 17.4792 12.31C17.8692 12.5787 18.3632 12.713 18.9612 12.713C19.5765 12.713 20.0748 12.5787 20.4562 12.31C20.8375 12.0413 21.1192 11.6557 21.3012 11.153C21.4832 10.6503 21.5742 10.048 21.5742 9.346C21.5742 8.29733 21.3705 7.474 20.9632 6.876C20.5558 6.278 19.8928 5.979 18.9742 5.979C18.3675 5.979 17.8692 6.11333 17.4792 6.382C17.0978 6.65067 16.8118 7.03633 16.6212 7.539C16.4392 8.04167 16.3482 8.644 16.3482 9.346ZM28.2401 14H26.5761V6.122H23.9111V4.718H30.9051V6.122H28.2401V14Z" fill="white"/>
</svg>
